<svg xmlns="http://www.w3.org/2000/svg" viewBox="0 0 860 1515" font-family="Segoe UI, Helvetica Neue, Arial, sans-serif">
<rect x="0" y="0" width="860" height="1515" rx="10" fill="#0d1117"/>
<text x="20" y="32" fill="#e6edf3" font-size="22" font-weight="800">THOR vs mimir - the honest picture</text>
<text x="20" y="54" fill="#8b949e" font-size="12">Same machine, blind-judged, every test re-measured fresh 2026-07-11 after the v4 round (3-judge median, level playing field). Wins and losses.</text>
<text x="20" y="84" fill="#c9d1d9" font-size="12.5" font-weight="700" letter-spacing="0.4">TEST 1 - COVERAGE  (200 questions: 118 shared-knowledge + 82 stratified)</text>
<text x="20" y="100" fill="#8b949e" font-size="11">deliberate recall over the live store . higher is better</text>
<rect x="196" y="110" width="177.5" height="14" rx="7" fill="#22d3ee"/>
<text x="380.54" y="121.5" fill="#e6edf3" font-size="11.5" font-weight="700">54%</text>
<text x="184" y="121.5" fill="#22d3ee" font-size="10.5" font-weight="700" text-anchor="end">THOR</text>
<text x="20" y="132" fill="#e6edf3" font-size="13" font-weight="700">Code structure</text>
<text x="838" y="133" fill="#e3b341" font-size="15" font-weight="800" text-anchor="end">-4%</text>
<rect x="196" y="130" width="190.1" height="14" rx="7" fill="#484f58"/>
<text x="393.08" y="141.5" fill="#8b949e" font-size="11.5">58%</text>
<text x="184" y="141.5" fill="#8b949e" font-size="10.5" text-anchor="end">mimir</text>
<rect x="196" y="160" width="233.6" height="14" rx="7" fill="#22d3ee"/>
<text x="436.64" y="171.5" fill="#e6edf3" font-size="11.5" font-weight="700">71%</text>
<text x="184" y="171.5" fill="#22d3ee" font-size="10.5" font-weight="700" text-anchor="end">THOR</text>
<text x="20" y="182" fill="#e6edf3" font-size="13" font-weight="700">Code behavior</text>
<text x="838" y="183" fill="#22d3ee" font-size="15" font-weight="800" text-anchor="end">+15%</text>
<rect x="196" y="180" width="184.1" height="14" rx="7" fill="#484f58"/>
<text x="387.14" y="191.5" fill="#8b949e" font-size="11.5">56%</text>
<text x="184" y="191.5" fill="#8b949e" font-size="10.5" text-anchor="end">mimir</text>
<rect x="196" y="210" width="255.8" height="14" rx="7" fill="#22d3ee"/>
<text x="458.75" y="221.5" fill="#e6edf3" font-size="11.5" font-weight="700">78%</text>
<text x="184" y="221.5" fill="#22d3ee" font-size="10.5" font-weight="700" text-anchor="end">THOR</text>
<text x="20" y="232" fill="#e6edf3" font-size="13" font-weight="700">Doc reference</text>
<text x="838" y="233" fill="#22d3ee" font-size="15" font-weight="800" text-anchor="end">+18%</text>
<rect x="196" y="230" width="198.0" height="14" rx="7" fill="#484f58"/>
<text x="401.00" y="241.5" fill="#8b949e" font-size="11.5">60%</text>
<text x="184" y="241.5" fill="#8b949e" font-size="10.5" text-anchor="end">mimir</text>
<rect x="196" y="260" width="281.5" height="14" rx="7" fill="#22d3ee"/>
<text x="484.49" y="271.5" fill="#e6edf3" font-size="11.5" font-weight="700">85%</text>
<text x="184" y="271.5" fill="#22d3ee" font-size="10.5" font-weight="700" text-anchor="end">THOR</text>
<text x="20" y="282" fill="#e6edf3" font-size="13" font-weight="700">Config how-to</text>
<text x="838" y="283" fill="#22d3ee" font-size="15" font-weight="800" text-anchor="end">+15%</text>
<rect x="196" y="280" width="233.0" height="14" rx="7" fill="#484f58"/>
<text x="435.98" y="291.5" fill="#8b949e" font-size="11.5">71%</text>
<text x="184" y="291.5" fill="#8b949e" font-size="10.5" text-anchor="end">mimir</text>
<rect x="196" y="310" width="251.1" height="14" rx="7" fill="#22d3ee"/>
<text x="454.13" y="321.5" fill="#e6edf3" font-size="11.5" font-weight="700">76%</text>
<text x="184" y="321.5" fill="#22d3ee" font-size="10.5" font-weight="700" text-anchor="end">THOR</text>
<text x="20" y="332" fill="#e6edf3" font-size="13" font-weight="700">Gotcha</text>
<text x="838" y="333" fill="#22d3ee" font-size="15" font-weight="800" text-anchor="end">+4%</text>
<rect x="196" y="330" width="236.6" height="14" rx="7" fill="#484f58"/>
<text x="439.61" y="341.5" fill="#8b949e" font-size="11.5">72%</text>
<text x="184" y="341.5" fill="#8b949e" font-size="10.5" text-anchor="end">mimir</text>
<rect x="196" y="360" width="238.3" height="14" rx="7" fill="#22d3ee"/>
<text x="441.26" y="371.5" fill="#e6edf3" font-size="11.5" font-weight="700">72%</text>
<text x="184" y="371.5" fill="#22d3ee" font-size="10.5" font-weight="700" text-anchor="end">THOR</text>
<text x="20" y="382" fill="#e6edf3" font-size="13" font-weight="700">Decision</text>
<text x="838" y="383" fill="#22d3ee" font-size="15" font-weight="800" text-anchor="end">+11%</text>
<rect x="196" y="380" width="201.6" height="14" rx="7" fill="#484f58"/>
<text x="404.63" y="391.5" fill="#8b949e" font-size="11.5">61%</text>
<text x="184" y="391.5" fill="#8b949e" font-size="10.5" text-anchor="end">mimir</text>
<line x1="20" y1="410" x2="840" y2="410" stroke="#21262d" stroke-width="1"/>
<text x="20" y="428" fill="#e6edf3" font-size="13" font-weight="700">Test 1 overall  <tspan fill="#22d3ee">THOR 71%</tspan> vs <tspan fill="#8b949e">mimir 61%</tspan>  (n=200)</text>
<text x="20" y="444" fill="#8b949e" font-size="11">mimir now wins code-structure (its new tree-sitter CodeChunk indexing); THOR leads every other category and overall.</text>
<text x="20" y="474" fill="#c9d1d9" font-size="12.5" font-weight="700" letter-spacing="0.4">TEST 2 - SAME KNOWLEDGE  (118 facts both systems have)</text>
<text x="20" y="490" fill="#8b949e" font-size="11">NOT RE-MEASURED this round . previous (v3) round's numbers shown for reference</text>
<rect x="196" y="500" width="202.6" height="14" rx="7" fill="#22d3ee"/>
<text x="405.62" y="511.5" fill="#e6edf3" font-size="11.5" font-weight="700">61%</text>
<text x="184" y="511.5" fill="#22d3ee" font-size="10.5" font-weight="700" text-anchor="end">THOR</text>
<text x="20" y="522" fill="#e6edf3" font-size="13" font-weight="700">Answer present</text>
<text x="838" y="523" fill="#22d3ee" font-size="15" font-weight="800" text-anchor="end">+8%</text>
<rect x="196" y="520" width="177.5" height="14" rx="7" fill="#484f58"/>
<text x="380.54" y="531.5" fill="#8b949e" font-size="11.5">54%</text>
<text x="184" y="531.5" fill="#8b949e" font-size="10.5" text-anchor="end">mimir</text>
<text x="20" y="550" fill="#c9d1d9" font-size="11">Previous-round result: THOR led the broad shared set by +8%; mimir kept the strictest dual-written-only cut (n=53), 94% vs 92%.</text>
<text x="20" y="566" fill="#c9d1d9" font-size="11">No fresh Test 2 data this round - see BENCHMARKS.md.</text>
<text x="20" y="596" fill="#c9d1d9" font-size="12.5" font-weight="700" letter-spacing="0.4">TEST 3 - MULTI-PROJECT  (three private project repos seeded)</text>
<text x="20" y="612" fill="#8b949e" font-size="11">45 real questions from each repo, scoped per project, blind-judged by 3-judge median . top-5 full chunks</text>
<rect x="196" y="622" width="297.0" height="14" rx="7" fill="#22d3ee"/>
<text x="500.00" y="633.5" fill="#e6edf3" font-size="11.5" font-weight="700">90%</text>
<text x="184" y="633.5" fill="#22d3ee" font-size="10.5" font-weight="700" text-anchor="end">THOR</text>
<text x="20" y="644" fill="#e6edf3" font-size="13" font-weight="700">Project 1</text>
<text x="838" y="645" fill="#e3b341" font-size="15" font-weight="800" text-anchor="end">-10%</text>
<rect x="196" y="642" width="330.0" height="14" rx="7" fill="#484f58"/>
<text x="533.00" y="653.5" fill="#8b949e" font-size="11.5">100%</text>
<text x="184" y="653.5" fill="#8b949e" font-size="10.5" text-anchor="end">mimir</text>
<rect x="196" y="672" width="330.0" height="14" rx="7" fill="#22d3ee"/>
<text x="533.00" y="683.5" fill="#e6edf3" font-size="11.5" font-weight="700">100%</text>
<text x="184" y="683.5" fill="#22d3ee" font-size="10.5" font-weight="700" text-anchor="end">THOR</text>
<text x="20" y="694" fill="#e6edf3" font-size="13" font-weight="700">Project 2</text>
<text x="838" y="695" fill="#22d3ee" font-size="15" font-weight="800" text-anchor="end">+3%</text>
<rect x="196" y="692" width="319.1" height="14" rx="7" fill="#484f58"/>
<text x="522.11" y="703.5" fill="#8b949e" font-size="11.5">97%</text>
<text x="184" y="703.5" fill="#8b949e" font-size="10.5" text-anchor="end">mimir</text>
<rect x="196" y="722" width="307.9" height="14" rx="7" fill="#22d3ee"/>
<text x="510.89" y="733.5" fill="#e6edf3" font-size="11.5" font-weight="700">93%</text>
<text x="184" y="733.5" fill="#22d3ee" font-size="10.5" font-weight="700" text-anchor="end">THOR</text>
<text x="20" y="744" fill="#e6edf3" font-size="13" font-weight="700">Project 3</text>
<text x="838" y="745" fill="#c9d1d9" font-size="15" font-weight="800" text-anchor="end">tie</text>
<rect x="196" y="742" width="307.9" height="14" rx="7" fill="#484f58"/>
<text x="510.89" y="753.5" fill="#8b949e" font-size="11.5">93%</text>
<text x="184" y="753.5" fill="#8b949e" font-size="10.5" text-anchor="end">mimir</text>
<line x1="20" y1="772" x2="840" y2="772" stroke="#21262d" stroke-width="1"/>
<text x="20" y="790" fill="#e6edf3" font-size="13" font-weight="700">Test 3 overall  <tspan fill="#8b949e">mimir 97%</tspan> vs <tspan fill="#22d3ee">THOR 94%</tspan>  (n=45)</text>
<text x="20" y="806" fill="#8b949e" font-size="11">mimir retakes the overall lead: its new code-content indexing closes Project 3's gap completely (was a 17-point THOR lead).</text>
<text x="20" y="822" fill="#8b949e" font-size="11">mimir widens its lead on Project 1's curated docs (100 vs 90); THOR keeps Project 2 (100 vs 97).</text>
<text x="20" y="852" fill="#c9d1d9" font-size="12.5" font-weight="700" letter-spacing="0.4">SESSION DRIFT COMPENSATION  (73 fresh-session scenarios)</text>
<text x="20" y="868" fill="#8b949e" font-size="11">post-compaction, empty context: does the AS-DEPLOYED auto-injection surface the fact that stops the drift?</text>
<rect x="196" y="878" width="244.2" height="14" rx="7" fill="#22d3ee"/>
<text x="447.20" y="889.5" fill="#e6edf3" font-size="11.5" font-weight="700">74%</text>
<text x="184" y="889.5" fill="#22d3ee" font-size="10.5" font-weight="700" text-anchor="end">THOR</text>
<text x="20" y="900" fill="#e6edf3" font-size="13" font-weight="700">Preventer surfaced</text>
<text x="838" y="901" fill="#22d3ee" font-size="15" font-weight="800" text-anchor="end">+18%</text>
<rect x="196" y="898" width="185.5" height="14" rx="7" fill="#484f58"/>
<text x="388.46" y="909.5" fill="#8b949e" font-size="11.5">56%</text>
<text x="184" y="909.5" fill="#8b949e" font-size="10.5" text-anchor="end">mimir</text>
<rect x="196" y="928" width="158.1" height="14" rx="7" fill="#22d3ee"/>
<text x="361.07" y="939.5" fill="#e6edf3" font-size="11.5" font-weight="700">48%</text>
<text x="184" y="939.5" fill="#22d3ee" font-size="10.5" font-weight="700" text-anchor="end">THOR</text>
<text x="20" y="950" fill="#e6edf3" font-size="13" font-weight="700">Clear catch (full)</text>
<text x="838" y="951" fill="#22d3ee" font-size="15" font-weight="800" text-anchor="end">+5%</text>
<rect x="196" y="948" width="140.2" height="14" rx="7" fill="#484f58"/>
<text x="343.25" y="959.5" fill="#8b949e" font-size="11.5">42%</text>
<text x="184" y="959.5" fill="#8b949e" font-size="10.5" text-anchor="end">mimir</text>
<text x="20" y="978" fill="#c9d1d9" font-size="11">CORRECTED this round: the courier was first measured with a fixed cwd for all 73 scenarios (an instrument bug -</text>
<text x="20" y="994" fill="#c9d1d9" font-size="11">also present, unnoticed, in the numbers previously published here); regenerating per-scenario with the scenario's</text>
<text x="20" y="1010" fill="#c9d1d9" font-size="11">real home project raised surfaced from 35.6% to 74.0%. Pins + file/command guards cover the rest by construction</text>
<text x="20" y="1026" fill="#c9d1d9" font-size="11">(16/16 surfaced on the committed corpus): cargo run --example drift_eval, reproducible in-repo.</text>
<text x="20" y="1056" fill="#c9d1d9" font-size="12.5" font-weight="700" letter-spacing="0.4">SPEED AND TOKENS  (per-prompt cost, lower is better)</text>
<text x="20" y="1072" fill="#8b949e" font-size="11">THOR courier vs mimir's as-deployed cold path, median of 20, same 20 task prompts</text>
<rect x="196" y="1082" width="137.0" height="14" rx="7" fill="#22d3ee"/>
<text x="340.04" y="1093.5" fill="#e6edf3" font-size="11.5" font-weight="700">234 ms</text>
<text x="184" y="1093.5" fill="#22d3ee" font-size="10.5" font-weight="700" text-anchor="end">THOR</text>
<text x="20" y="1104" fill="#e6edf3" font-size="13" font-weight="700">Latency (as-deployed)</text>
<text x="838" y="1105" fill="#22d3ee" font-size="15" font-weight="800" text-anchor="end">2.4x faster</text>
<rect x="196" y="1102" width="330.0" height="14" rx="7" fill="#484f58"/>
<text x="533.00" y="1113.5" fill="#8b949e" font-size="11.5">564 ms</text>
<text x="184" y="1113.5" fill="#8b949e" font-size="10.5" text-anchor="end">mimir</text>
<rect x="196" y="1132" width="330.0" height="14" rx="7" fill="#22d3ee"/>
<text x="533.00" y="1143.5" fill="#e6edf3" font-size="11.5" font-weight="700">579</text>
<text x="184" y="1143.5" fill="#22d3ee" font-size="10.5" font-weight="700" text-anchor="end">THOR</text>
<text x="20" y="1154" fill="#e6edf3" font-size="13" font-weight="700">Tokens injected</text>
<text x="838" y="1155" fill="#e3b341" font-size="15" font-weight="800" text-anchor="end">2.5x MORE (not fewer)</text>
<rect x="196" y="1152" width="134.5" height="14" rx="7" fill="#484f58"/>
<text x="337.45" y="1163.5" fill="#8b949e" font-size="11.5">236</text>
<text x="184" y="1163.5" fill="#8b949e" font-size="10.5" text-anchor="end">mimir</text>
<text x="20" y="1182" fill="#c9d1d9" font-size="11">mimir's opt-in warm daemon (single best-effort memory, not shown as a bar) is faster still: 66 ms median.</text>
<text x="20" y="1198" fill="#c9d1d9" font-size="11">Old '1.5x faster / 2.1x fewer tokens' headline does not hold on this round's sample and is retired.</text>
<text x="20" y="1228" fill="#c9d1d9" font-size="12.5" font-weight="700" letter-spacing="0.4">HONEST DOWNSIDES</text>
<text x="20" y="1244" fill="#8b949e" font-size="11">where THOR does not win, and the caveats</text>
<circle cx="26" cy="1262" r="3" fill="#e3b341"/>
<text x="38" y="1266" fill="#e6edf3" font-size="11.5">mimir retook the overall multi-project lead this round, 97% vs 94% - its new code-content indexing closed THOR's biggest structural edge</text>
<circle cx="26" cy="1283" r="3" fill="#e3b341"/>
<text x="38" y="1287" fill="#e6edf3" font-size="11.5">mimir now wins code-structure on Test 1, 58% vs 54% - its own tree-sitter CodeChunk indexing, folded into ordinary recall</text>
<circle cx="26" cy="1304" r="3" fill="#e3b341"/>
<text x="38" y="1308" fill="#e6edf3" font-size="11.5">Only config-how-to cleared an 80% bar this round (THOR 85%); every other T1 category and every drift metric stayed below it</text>
<circle cx="26" cy="1325" r="3" fill="#e3b341"/>
<text x="38" y="1329" fill="#e6edf3" font-size="11.5">On this round's speed sample mimir's opt-in warm daemon beats THOR's latency (66 ms vs 234 ms), and THOR injects more tokens than mimir's cold path, not fewer</text>
<circle cx="26" cy="1346" r="3" fill="#e3b341"/>
<text x="38" y="1350" fill="#e6edf3" font-size="11.5">Same-knowledge (Test 2) not re-measured this round; previous round mimir led the strictest dual-written cut (n=53), 94% vs 92% - pure memory recall is its home turf</text>
<circle cx="26" cy="1367" r="3" fill="#e3b341"/>
<text x="38" y="1371" fill="#e6edf3" font-size="11.5">mimir has a code-symbol graph (graph/outline/peek) that THOR deliberately does NOT - for 'which functions call X'</text>
<circle cx="26" cy="1388" r="3" fill="#e3b341"/>
<text x="38" y="1392" fill="#e6edf3" font-size="11.5">Semantic mode needs a ~235 MB model + a warm embed-daemon resident (off by default; degrades cleanly to bm25)</text>
<circle cx="26" cy="1409" r="3" fill="#e3b341"/>
<text x="38" y="1413" fill="#e6edf3" font-size="11.5">Newer and far less battle-tested than mimir's daily use</text>
<circle cx="26" cy="1430" r="3" fill="#e3b341"/>
<text x="38" y="1434" fill="#e6edf3" font-size="11.5">One machine, private corpus, LLM-judged - only the drift mechanism is reproducible from this repo (examples/drift_eval.rs)</text>
<line x1="20" y1="1463" x2="840" y2="1463" stroke="#21262d" stroke-width="1"/>
<text x="20" y="1483" fill="#e6edf3" font-size="13.5" font-weight="700">Bottom line  <tspan fill="#22d3ee">coverage 71% vs 61%</tspan>  .  <tspan fill="#c9d1d9">same-knowledge not re-measured</tspan>  .  <tspan fill="#8b949e">multi-project 94% vs 97% (mimir)</tspan>  .  <tspan fill="#22d3ee">drift surfaced 74% vs 56%, latency 2.4x faster than mimir cold</tspan></text>
</svg>
